REM DIRINDEX 1\2,1\3,1\4,1\5
REM DIRNAME folder01,folder02,folder03,folder04,folder05
TITLE ""
FILE "135.mp3" MP3
  TRACK 01 AUDIO
    TITLE "0:"
    INDEX 01 00:00:00
  TRACK 02 AUDIO
    TITLE "2:cjc046_3522"
    INDEX 01 00:00:11
  TRACK 03 AUDIO
    TITLE "0:"
    INDEX 01 00:01:19
  TRACK 04 AUDIO
    TITLE "3:cjc046_3523"
    INDEX 01 00:01:38
  TRACK 05 AUDIO
    TITLE "0:"
    INDEX 01 00:02:40
  TRACK 06 AUDIO
    TITLE "4:cjc046_3524"
    INDEX 01 00:02:57
  TRACK 07 AUDIO
    TITLE "0:"
    INDEX 01 00:03:64
  TRACK 08 AUDIO
    TITLE "2:cjc046_3525"
    INDEX 01 00:04:70
  TRACK 09 AUDIO
    TITLE "0:"
    INDEX 01 00:06:04
  TRACK 10 AUDIO
    TITLE "3:cjc046_3526"
    INDEX 01 00:06:26
  TRACK 11 AUDIO
    TITLE "0:"
    INDEX 01 00:07:37
  TRACK 12 AUDIO
    TITLE "4:cjc046_3527"
    INDEX 01 00:07:47
  TRACK 13 AUDIO
    TITLE "0:"
    INDEX 01 00:08:58
  TRACK 14 AUDIO
    TITLE "2:cjc046_3528"
    INDEX 01 00:09:67
  TRACK 15 AUDIO
    TITLE "0:"
    INDEX 01 00:11:01
  TRACK 16 AUDIO
    TITLE "3:cjc046_3529"
    INDEX 01 00:11:23
  TRACK 17 AUDIO
    TITLE "0:"
    INDEX 01 00:13:33
  TRACK 18 AUDIO
    TITLE "4:cjc046_3530"
    INDEX 01 00:13:47
  TRACK 19 AUDIO
    TITLE "0:"
    INDEX 01 00:14:56
  TRACK 20 AUDIO
    TITLE "2:cjc046_3531"
    INDEX 01 00:15:68
  TRACK 21 AUDIO
    TITLE "0:"
    INDEX 01 00:17:04
  TRACK 22 AUDIO
    TITLE "3:cjc046_3532"
    INDEX 01 00:17:20
  TRACK 23 AUDIO
    TITLE "0:"
    INDEX 01 00:18:54
  TRACK 24 AUDIO
    TITLE "4:cjc046_3533"
    INDEX 01 00:18:60
  TRACK 25 AUDIO
    TITLE "0:"
    INDEX 01 00:19:73
  TRACK 26 AUDIO
    TITLE "2:cjc046_3534"
    INDEX 01 00:21:06
  TRACK 27 AUDIO
    TITLE "0:"
    INDEX 01 00:22:07
  TRACK 28 AUDIO
    TITLE "3:cjc046_3535"
    INDEX 01 00:22:27
  TRACK 29 AUDIO
    TITLE "0:"
    INDEX 01 00:23:22
  TRACK 30 AUDIO
    TITLE "4:cjc046_3536"
    INDEX 01 00:23:44
  TRACK 31 AUDIO
    TITLE "0:"
    INDEX 01 00:24:43
  TRACK 32 AUDIO
    TITLE "2:cjc046_3537"
    INDEX 01 00:25:52
  TRACK 33 AUDIO
    TITLE "0:"
    INDEX 01 00:26:54
  TRACK 34 AUDIO
    TITLE "3:cjc046_3538"
    INDEX 01 00:27:02
  TRACK 35 AUDIO
    TITLE "0:"
    INDEX 01 00:28:06
  TRACK 36 AUDIO
    TITLE "4:cjc046_3539"
    INDEX 01 00:28:25
  TRACK 37 AUDIO
    TITLE "0:"
    INDEX 01 00:29:25
  TRACK 38 AUDIO
    TITLE "2:cjc046_3540"
    INDEX 01 00:30:38
  TRACK 39 AUDIO
    TITLE "0:"
    INDEX 01 00:31:57
  TRACK 40 AUDIO
    TITLE "3:cjc046_3541"
    INDEX 01 00:32:00
  TRACK 41 AUDIO
    TITLE "0:"
    INDEX 01 00:34:43
  TRACK 42 AUDIO
    TITLE "4:cjc046_3542"
    INDEX 01 00:34:55
  TRACK 43 AUDIO
    TITLE "0:"
    INDEX 01 00:36:01
  TRACK 44 AUDIO
    TITLE "2:cjc046_3543"
    INDEX 01 00:37:08
  TRACK 45 AUDIO
    TITLE "0:"
    INDEX 01 00:38:24
  TRACK 46 AUDIO
    TITLE "3:cjc046_3544"
    INDEX 01 00:38:43
  TRACK 47 AUDIO
    TITLE "0:"
    INDEX 01 00:39:43
  TRACK 48 AUDIO
    TITLE "4:cjc046_3545"
    INDEX 01 00:39:58
  TRACK 49 AUDIO
    TITLE "0:"
    INDEX 01 00:41:00
  TRACK 50 AUDIO
    TITLE "2:cjc046_3546"
    INDEX 01 00:42:08
  TRACK 51 AUDIO
    TITLE "0:"
    INDEX 01 00:43:21
  TRACK 52 AUDIO
    TITLE "3:cjc046_3547"
    INDEX 01 00:43:37
  TRACK 53 AUDIO
    TITLE "0:"
    INDEX 01 00:45:04
  TRACK 54 AUDIO
    TITLE "4:cjc046_3548"
    INDEX 01 00:45:20
  TRACK 55 AUDIO
    TITLE "0:"
    INDEX 01 00:46:33
  TRACK 56 AUDIO
    TITLE "2:cjc046_3549"
    INDEX 01 00:47:40
  TRACK 57 AUDIO
    TITLE "0:"
    INDEX 01 00:48:57
  TRACK 58 AUDIO
    TITLE "3:cjc046_3550"
    INDEX 01 00:49:00
  TRACK 59 AUDIO
    TITLE "0:"
    INDEX 01 00:50:13
  TRACK 60 AUDIO
    TITLE "4:cjc046_3551"
    INDEX 01 00:50:33
  TRACK 61 AUDIO
    TITLE "0:"
    INDEX 01 00:51:52
  TRACK 62 AUDIO
    TITLE "2:cjc046_3552"
    INDEX 01 00:52:59
  TRACK 63 AUDIO
    TITLE "0:"
    INDEX 01 00:53:72
  TRACK 64 AUDIO
    TITLE "3:cjc046_3553"
    INDEX 01 00:54:17
  TRACK 65 AUDIO
    TITLE "0:"
    INDEX 01 00:55:24
  TRACK 66 AUDIO
    TITLE "4:cjc046_3554"
    INDEX 01 00:55:46
  TRACK 67 AUDIO
    TITLE "0:"
    INDEX 01 00:56:57
  TRACK 68 AUDIO
    TITLE "2:cjc046_3555"
    INDEX 01 00:57:66
  TRACK 69 AUDIO
    TITLE "0:"
    INDEX 01 00:58:73
  TRACK 70 AUDIO
    TITLE "3:cjc046_3556"
    INDEX 01 00:59:18
  TRACK 71 AUDIO
    TITLE "0:"
    INDEX 01 01:00:37
  TRACK 72 AUDIO
    TITLE "4:cjc046_3557"
    INDEX 01 01:00:55
  TRACK 73 AUDIO
    TITLE "0:"
    INDEX 01 01:01:58
  TRACK 74 AUDIO
    TITLE "2:cjc046_3558"
    INDEX 01 01:02:69
  TRACK 75 AUDIO
    TITLE "0:"
    INDEX 01 01:04:09
  TRACK 76 AUDIO
    TITLE "3:cjc046_3559"
    INDEX 01 01:04:27
  TRACK 77 AUDIO
    TITLE "0:"
    INDEX 01 01:06:00
  TRACK 78 AUDIO
    TITLE "4:cjc046_3560"
    INDEX 01 01:06:18
  TRACK 79 AUDIO
    TITLE "0:"
    INDEX 01 01:07:31
  TRACK 80 AUDIO
    TITLE "2:cjc046_3561"
    INDEX 01 01:08:38
  TRACK 81 AUDIO
    TITLE "0:"
    INDEX 01 01:09:42
  TRACK 82 AUDIO
    TITLE "3:cjc046_3562"
    INDEX 01 01:09:59
  TRACK 83 AUDIO
    TITLE "0:"
    INDEX 01 01:11:11
  TRACK 84 AUDIO
    TITLE "4:cjc046_3563"
    INDEX 01 01:11:31
  TRACK 85 AUDIO
    TITLE "0:"
    INDEX 01 01:12:36
